<svg width="111" height="111" viewBox="0 0 111 111" fill="none" xmlns="http://www.w3.org/2000/svg">
<path fill-rule="evenodd" clip-rule="evenodd" d="M24.5859 9.56055C33.6704 3.49119 44.3507 0.252108 55.2762 0.25293C69.9204 0.27193 83.9594 6.09774 94.3144 16.4528C104.669 26.8078 110.495 40.8468 110.514 55.491C110.514 65.0339 108.041 74.4139 103.337 82.7169C98.6331 91.0199 91.8582 97.9626 83.6729 102.868C75.4875 107.774 66.1708 110.476 56.6308 110.71C47.0908 110.944 37.6528 108.702 29.2368 104.204C20.8207 99.7052 13.7137 93.103 8.60819 85.0407C3.50273 76.9783 0.573055 67.7308 0.104671 58.1994C-0.363713 48.668 1.64518 39.1779 5.93556 30.6538C10.2259 22.1298 16.6515 14.8626 24.5859 9.56055ZM30.1705 93.0584C37.6009 98.0266 46.3379 100.679 55.2762 100.681C67.2593 100.671 78.7488 95.907 87.2232 87.4348C95.6975 78.9625 100.464 67.4741 100.478 55.491C100.476 47.6862 98.4523 40.0149 94.6044 33.2245C90.7564 26.4341 85.2152 20.7563 78.5206 16.7441C71.826 12.7319 64.2062 10.5222 56.4037 10.3303C48.6012 10.1384 40.8821 11.9708 33.9983 15.649C27.1145 19.3273 21.3009 24.7259 17.1238 31.3189C12.9467 37.9119 10.5486 45.4744 10.1631 53.2698C9.77767 61.0651 11.418 68.8273 14.9242 75.8003C18.4305 82.7732 23.6832 88.719 30.1705 93.0584ZM78.6695 29.3468C79.2841 29.6028 79.8418 29.9783 80.3101 30.4516C81.2512 31.3941 81.7798 32.6715 81.7798 34.0034C81.7798 35.3353 81.2512 36.6127 80.3101 37.5552L62.413 55.4524L80.3101 73.355C81.2495 74.2973 81.777 75.5735 81.777 76.9041C81.777 78.2346 81.2495 79.5109 80.3101 80.4531C79.8448 80.9315 79.2882 81.3118 78.6734 81.5714C78.0586 81.8311 77.398 81.9648 76.7307 81.9648C76.0633 81.9648 75.4027 81.8311 74.7879 81.5714C74.1731 81.3118 73.6166 80.9315 73.1512 80.4531L55.2541 62.556L37.357 80.4531C36.8911 80.9317 36.3342 81.312 35.7189 81.5718C35.1036 81.8315 34.4426 81.9653 33.7748 81.9653C33.1069 81.9653 32.4459 81.8315 31.8306 81.5718C31.2154 81.312 30.6584 80.9317 30.1926 80.4531C29.7234 79.9888 29.351 79.436 29.0968 78.8269C28.8427 78.2177 28.7118 77.5641 28.7118 76.9041C28.7118 76.244 28.8427 75.5905 29.0968 74.9813C29.351 74.3721 29.7234 73.8194 30.1926 73.355L48.0897 55.4579L30.1926 37.5607C29.2756 36.6064 28.7705 35.3298 28.7863 34.0064C28.8021 32.683 29.3374 31.4189 30.2769 30.4867C31.2164 29.5544 32.4846 29.0289 33.8081 29.0234C35.1316 29.0178 36.4042 29.5328 37.3514 30.4571L55.2486 48.3543L73.1512 30.4571C73.8557 29.7414 74.7584 29.2532 75.743 29.0553C76.7275 28.8574 77.7487 28.959 78.675 29.3468H78.6695Z" fill="#00A2E8"/>
</svg>
