<svg width="70" height="70" viewBox="0 0 70 70" fill="none" xmlns="http://www.w3.org/2000/svg">
<g clip-path="url(#clip0_193_8)">
<path d="M35 14.1367C21.6258 14.1367 9.49729 21.4539 0.547714 33.3389C-0.182571 34.3126 -0.182571 35.673 0.547714 36.6467C9.49729 48.546 21.6258 55.8632 35 55.8632C48.3742 55.8632 60.5027 48.546 69.4523 36.661C70.1826 35.6873 70.1826 34.327 69.4523 33.3532C60.5027 21.4539 48.3742 14.1367 35 14.1367ZM35.9594 49.6916C27.0814 50.25 19.7499 42.9329 20.3084 34.0406C20.7666 26.7091 26.7091 20.7666 34.0406 20.3083C42.9186 19.7499 50.2501 27.0671 49.6916 35.9594C49.2191 43.2765 43.2766 49.219 35.9594 49.6916ZM35.5155 42.9042C30.7328 43.2049 26.7807 39.2671 27.0957 34.4845C27.3392 30.5323 30.5467 27.3391 34.4988 27.0814C39.2815 26.7807 43.2336 30.7185 42.9186 35.5011C42.6608 39.4676 39.4533 42.6608 35.5155 42.9042Z" fill="#8D64E2"/>
</g>
<defs>
<clipPath id="clip0_193_8">
<rect width="70" height="70" fill="white"/>
</clipPath>
</defs>
</svg>
