<svg width="1159" height="591" viewBox="0 0 1159 591" fill="none" xmlns="http://www.w3.org/2000/svg">
<g clip-path="url(#clip0_720_183)">
<path d="M631.448 263.52L674.962 338.886L667.317 332.266L629.759 267.214L631.448 263.52ZM491.423 332.266L528.981 267.214L527.292 263.521L483.781 338.884L491.423 332.266ZM480.726 349.192H488.308L544.301 300.7L542.15 295.997L482.576 347.589L480.726 349.192ZM616.59 295.997L614.439 300.7L670.432 349.192H678.015L676.163 347.588L616.59 295.997ZM759.54 421.837H399.199L401.779 417.37L410.404 402.431L435.41 359.119H413.902C413.338 359.119 412.813 358.833 412.509 358.358C412.205 357.885 412.163 357.288 412.397 356.776L495.131 175.94C495.4 175.351 495.989 174.973 496.636 174.973C497.283 174.973 497.871 175.351 498.14 175.94L517.163 217.519L571.096 124.103L576.504 114.737L579.37 109.773L582.236 114.737L587.643 124.103L641.577 217.519L660.6 175.94C660.869 175.351 661.456 174.973 662.104 174.973C662.752 174.973 663.339 175.351 663.608 175.94L746.343 356.776C746.577 357.288 746.535 357.885 746.231 358.358C745.926 358.833 745.402 359.119 744.838 359.119H723.329L748.335 402.429L756.961 417.37L759.54 421.837ZM416.478 355.81H576.793L576.766 355.75L552.025 301.672L549.515 296.186L547.363 291.482L544.852 285.995L533.042 260.18L531.352 256.488L517.667 226.574L515.133 221.035L496.636 180.606L416.478 355.81ZM552.121 293.929L554.631 299.415L579.37 353.488L604.109 299.415L606.619 293.928L583.793 274.161L579.37 270.33L574.947 274.161L552.121 293.929ZM643.607 221.036L641.073 226.574L627.388 256.487L625.698 260.18L613.888 285.995L611.377 291.482L609.226 296.186L606.715 301.673L581.975 355.75L581.947 355.81H742.261L662.104 180.606L643.607 221.036ZM415.003 412.675L429.905 407.431L567.19 359.119H476.845L415.003 412.675ZM591.55 359.119L728.835 407.431L743.736 412.675L681.895 359.119H591.55ZM717.599 359.119H689.478L745.719 407.825L736.873 392.504L717.599 359.119ZM581.852 124.001V267.047H583.162L608.771 289.225L611.281 283.738L623.668 256.664L587.643 194.267V187.649L625.357 252.971L639.043 223.058L587.643 134.031L581.852 124.001ZM519.697 223.058L533.383 252.971L571.096 187.649V194.267L535.072 256.664L547.459 283.738L549.969 289.225L575.579 267.047H576.888V124.001L571.096 134.031L519.697 223.058ZM421.868 392.502L413.022 407.825L469.262 359.119H441.142L421.868 392.502ZM739.738 416.873H740.711L739.072 416.297L579.37 360.096L419.668 416.297L418.029 416.873H739.738ZM513.606 233.608L511.072 228.069L441.141 349.192H446.873L513.606 233.608ZM717.598 349.192L647.668 228.069L645.134 233.607L711.867 349.192H717.598Z" fill="url(#paint0_linear_720_183)"/>
<path d="M6.35279 516.631V565.39C6.35279 571.518 3.25973 572.632 0.147461 573.958H45.2369L50.597 563.219C46.5433 566.715 42.2207 572.075 32.4421 572.075H15.7664V516.631C15.7664 510.502 18.8787 509.388 21.991 508.062H0.147461C3.25973 509.388 6.35279 510.502 6.35279 516.631ZM104.063 574.803C121.949 574.803 135.416 561.067 135.416 540.914C135.416 521.53 122.813 507.121 104.063 507.121C86.0999 507.121 72.6326 520.761 72.6326 540.914C72.6326 560.395 85.2354 574.803 104.063 574.803ZM82.5073 540.914C82.5073 521.895 91.7481 509.004 104.063 509.004C116.877 509.004 125.541 522.567 125.541 540.914C125.541 559.934 116.3 572.921 104.063 572.921C91.1717 572.921 82.5073 559.357 82.5073 540.914ZM188.132 573.958L207.536 516.151C209.496 510.406 213.357 509.388 216.469 508.062H202.157C205.269 509.388 207.613 510.406 205.653 516.151L190.572 561.067L172.782 515.785C170.727 510.406 167.134 508.062 161.486 508.062H153.686C156.779 509.388 160.833 510.329 163.004 516.054L185.789 573.958H188.132ZM247.534 516.631V565.39C247.534 571.518 244.422 572.632 241.329 573.958H286.419L291.779 563.219C287.725 566.715 283.402 572.075 273.605 572.075H256.948V541.952H269.378C275.487 541.952 276.621 545.064 277.946 548.157V533.864C276.621 536.957 275.487 540.069 269.378 540.069H256.948V509.945H274.546C283.691 509.945 285.381 514.556 287.36 519.263V508.062H241.329C244.422 509.388 247.534 510.502 247.534 516.631ZM322.844 516.631V565.39C322.844 571.518 319.731 572.632 316.638 573.958H361.728L367.088 563.219C363.034 566.715 358.712 572.075 348.914 572.075H332.257V516.631C332.257 510.502 335.37 509.388 338.463 508.062H316.638C319.731 509.388 322.844 510.502 322.844 516.631ZM414.54 519.455L398.998 565.87C397.019 571.595 393.158 572.632 390.065 573.958H404.358C401.265 572.632 398.902 571.595 400.881 565.87L405.78 551.365H427.892L433.733 566.235C435.808 571.595 439.381 573.958 445.029 573.958H452.848C449.736 572.632 445.701 571.691 443.531 565.947L420.746 508.062H410.295C414.348 509.945 417.268 511.348 414.54 519.455ZM406.337 549.483L415.943 520.953L427.143 549.483H406.337ZM504.431 574.803C512.25 574.803 520.146 571.038 525.718 564.737L524.488 563.603L519.493 559.357C521.011 562.373 522.413 565.005 517.706 569.059C513.653 571.595 509.042 572.921 504.431 572.921C489.658 572.921 480.993 559.357 480.993 540.914C480.993 521.895 490.215 509.004 503.49 509.004C507.063 509.004 510.464 509.561 513.48 510.694C517.245 512.769 516.112 515.497 514.978 518.514L518.936 513.326L519.877 512.02C515.266 508.908 509.695 507.121 503.49 507.121C484.566 507.121 471.118 520.761 471.118 540.914C471.118 560.395 483.721 574.803 504.431 574.803ZM556.763 516.631V565.39C556.763 571.518 553.67 572.632 550.558 573.958H595.648L601.008 563.219C596.973 566.715 592.631 572.075 582.853 572.075H566.177V541.952H578.607C584.735 541.952 585.869 545.064 587.175 548.157V533.864C585.869 536.957 584.735 540.069 578.607 540.069H566.177V509.945H583.794C592.92 509.945 594.61 514.556 596.589 519.263V508.062H550.558C553.67 509.388 556.763 510.502 556.763 516.631ZM671.61 516.631V565.39C671.61 571.518 668.517 572.632 665.405 573.958H710.494L715.854 563.219C711.82 566.715 707.478 572.075 697.699 572.075H681.024V516.631C681.024 510.502 684.136 509.388 687.248 508.062H665.405C668.517 509.388 671.61 510.502 671.61 516.631ZM746.919 516.631V565.39C746.919 571.518 743.826 572.632 740.714 573.958H762.557C759.445 572.632 756.333 571.518 756.333 565.39V516.631C756.333 510.502 759.445 509.388 762.557 508.062H740.714C743.826 509.388 746.919 510.502 746.919 516.631ZM793.622 516.631V565.39C793.622 571.518 790.51 572.632 787.398 573.958H816.023C830.432 573.958 840.21 566.043 840.21 556.168C840.21 549.867 835.139 544.123 823.17 540.357C829.759 536.688 834.562 531.885 834.562 524.527C834.562 515.497 824.784 508.062 810.375 508.062H787.398C790.51 509.388 793.622 510.502 793.622 516.631ZM803.036 572.075V548.08C808.588 546.178 814.525 544.391 819.789 542.048C826.378 544.295 830.336 548.829 830.336 556.168C830.336 566.619 824.399 572.075 816.023 572.075H803.036ZM803.036 545.333V509.945H810.375C818.943 509.945 824.688 514.748 824.688 524.527C824.688 537.994 814.429 541.567 803.036 545.333ZM871.275 516.631V565.39C871.275 571.518 868.182 572.632 865.07 573.958H910.16L915.52 563.219C911.485 566.715 907.143 572.075 897.365 572.075H880.689V541.952H893.119C899.248 541.952 900.362 545.064 901.687 548.157V533.864C900.362 536.957 899.248 540.069 893.119 540.069H880.689V509.945H898.306C907.432 509.945 909.122 514.556 911.101 519.263V508.062H865.07C868.182 509.388 871.275 510.502 871.275 516.631ZM946.585 516.631V565.39C946.585 571.518 943.492 572.632 940.379 573.958H962.223C959.111 572.632 955.998 571.518 955.998 565.39V552.115C958.265 551.269 960.705 550.424 963.068 549.579L974.73 566.888C978.13 571.883 976.44 572.632 973.327 573.958H996.112C993 572.632 988.581 571.883 985.181 566.811L971.348 546.178C980.301 541.952 987.544 536.207 987.544 526.141C987.544 515.786 977.477 508.062 963.356 508.062H940.379C943.492 509.388 946.585 510.502 946.585 516.631ZM955.998 549.194V509.945H963.356C971.733 509.945 977.65 515.401 977.65 526.141C977.65 540.722 967.295 545.064 955.998 549.194ZM1072.36 508.062H1020.95V519.263C1022.93 514.556 1024.62 509.945 1033.86 509.945H1041.95V565.39C1041.95 571.518 1038.84 572.632 1035.75 573.958H1057.57C1054.48 572.632 1051.36 571.518 1051.36 565.39V509.945H1059.55C1068.69 509.945 1070.38 514.556 1072.36 519.263V508.062ZM1107.29 515.689L1123.2 547.312V565.39C1123.2 571.518 1120.08 572.632 1116.97 573.958H1138.82C1135.7 572.632 1132.61 571.518 1132.61 565.39V548.08L1148.88 515.689C1151.63 510.233 1155.86 509.388 1158.97 508.062H1144.18C1147.29 509.388 1149.27 510.233 1146.54 515.689L1132.03 544.68L1117.36 515.209C1114.92 510.233 1111.32 508.062 1105.77 508.062H1097.2C1100.32 509.388 1104.56 510.233 1107.29 515.689Z" fill="white"/>
<path d="M175.655 419.107L176.521 405.128C176.923 398.647 173.315 394.747 167.754 394.403C164.513 394.202 162.189 395.675 160.796 398.283C159.768 397.161 158.327 396.494 156.487 396.38C151.731 396.086 148.601 398.76 148.257 404.321L147.449 417.359L175.655 419.107ZM170.186 412.012L163.915 411.623L164.443 403.11C164.568 401.096 165.955 399.835 167.834 399.951C169.694 400.066 170.838 401.485 170.694 403.805L170.186 412.012ZM158.853 411.31L153.753 410.994L154.157 404.474C154.28 402.48 155.196 401.363 156.884 401.467C158.609 401.574 159.381 402.796 159.257 404.79L158.853 411.31Z" fill="#B29EDA"/>
<path d="M152.539 363.988L171.337 357.172L182.223 359.263L183.499 352.622L172.821 350.571L157.703 337.103L156.388 343.952L166.217 352.667L153.851 357.159L152.539 363.988Z" fill="#B29EDA"/>
<path d="M206.903 276.175L186.167 267.702L189.037 260.677L183.578 258.447L175.286 278.738L180.746 280.969L183.616 273.944L204.353 282.417L206.903 276.175Z" fill="#B29EDA"/>
<path d="M224.185 239.958L214.428 234.497L220.199 224.187L229.956 229.649L233.25 223.765L208.59 209.961L205.296 215.845L215.053 221.306L209.282 231.616L199.525 226.155L196.231 232.039L220.891 245.843L224.185 239.958Z" fill="#B29EDA"/>
<path d="M247.305 202.139L259.244 185.784L254.48 182.306L246.517 193.215L242.25 190.1L248.718 181.24L243.954 177.762L237.486 186.622L233.219 183.507L241.182 172.599L236.418 169.122L224.479 185.477L247.305 202.139Z" fill="#B29EDA"/>
<path d="M300.735 139.791L294.267 132.846L299.511 127.962C303.078 124.351 303.212 118.687 299.702 114.92C296.233 111.194 290.574 110.925 286.718 114.227L276.54 123.707L295.801 144.387L300.735 139.791ZM290.247 128.53L285.494 123.427L289.881 119.342C291.385 117.941 293.393 118.039 294.807 119.558C296.208 121.062 296.138 123.044 294.634 124.445L290.247 128.53Z" fill="#B29EDA"/>
<path d="M332.517 112.362L348.848 100.391L345.361 95.6341L334.468 103.619L331.345 99.358L340.192 92.8724L336.705 88.1157L327.858 94.6012L324.734 90.3403L335.627 82.3554L332.14 77.5987L315.809 89.5703L332.517 112.362Z" fill="#B29EDA"/>
<path d="M383.509 79.4801C388.228 76.8578 391.002 72.0413 391.078 66.8781C391.137 64.2956 390.525 61.8886 389.256 59.6047C386.708 55.0203 381.977 52.2424 376.743 52.1181C374.161 52.0587 371.651 52.6841 369.334 53.9719C364.615 56.5942 361.822 61.3771 361.746 66.5403C361.687 69.1228 362.318 71.5635 363.596 73.8641C366.135 78.4317 370.865 81.2096 376.099 81.3339C378.682 81.3933 381.175 80.7773 383.509 79.4801ZM369.675 70.4859C367.557 66.6739 368.9 61.9715 372.628 59.8997C376.389 57.8094 381.058 59.171 383.177 62.9829C385.286 66.7781 383.943 71.4806 380.215 73.5523C376.453 75.6426 371.784 74.281 369.675 70.4859Z" fill="#B29EDA"/>
<path d="M425.826 58.5708L422.32 49.7516L428.979 47.1044C433.614 45.0344 435.794 39.8055 433.892 35.021C432.012 30.2901 426.837 27.9852 422.045 29.6625L409.12 34.8008L419.56 61.0619L425.826 58.5708ZM420.141 44.2709L417.565 37.7904L423.135 35.5761C425.045 34.8167 426.881 35.6376 427.647 37.5657C428.407 39.4759 427.622 41.2972 425.711 42.0566L420.141 44.2709Z" fill="#B29EDA"/>
<path d="M465.385 44.5642L484.126 39.5355L482.598 33.8391L470.37 37.1202L464.574 15.5219L458.062 17.2695L465.385 44.5642Z" fill="#B29EDA"/>
<path d="M509.284 34.2578L529.307 31.2438L528.429 25.4115L515.074 27.4219L514.288 22.1975L525.135 20.5647L524.257 14.7324L513.41 16.3653L512.623 11.141L525.978 9.13065L525.101 3.29841L505.077 6.3125L509.284 34.2578Z" fill="#B29EDA"/>
<path d="M591.141 28.4102L591.56 17.237L602.522 17.6479L602.743 11.754L591.781 11.3432L591.98 6.02529L605.477 6.53117L605.698 0.63737L588.823 0.00483713L588.821 0.0432323L585.461 -0.0826986L584.403 28.1576L591.141 28.4102Z" fill="#B29EDA"/>
<path d="M642.655 33.7088C647.986 34.5553 653.141 32.4752 656.385 28.458C658.025 26.4618 659.027 24.1895 659.437 21.6091C660.259 16.4292 658.249 11.3248 654.206 7.99851C652.21 6.35884 649.849 5.30314 647.23 4.88743C641.899 4.04094 636.75 6.08302 633.506 10.1003C631.866 12.0964 630.858 14.4067 630.445 17.0061C629.626 22.167 631.636 27.2714 635.679 30.5977C637.675 32.2374 640.017 33.29 642.655 33.7088ZM637.313 18.0966C637.997 13.7895 641.955 10.9165 646.167 11.5852C650.417 12.26 653.252 16.2115 652.568 20.5186C651.888 24.8067 647.93 27.6797 643.718 27.011C639.468 26.3362 636.633 22.3847 637.313 18.0966Z" fill="#B29EDA"/>
<path d="M705.014 48.1105L701.804 36.526C705.425 36.133 708.633 33.6146 709.759 29.8005C711.2 24.9179 708.552 19.9095 703.748 18.2706L690.408 14.332L682.406 41.4355L688.873 43.345L691.561 34.2429L694.158 35.01L697.164 45.793L705.014 48.1105ZM693.231 28.5864L695.205 21.898L700.954 23.5953C702.926 24.1774 703.863 25.9564 703.275 27.9464C702.693 29.9179 700.951 30.8658 698.979 30.2837L693.231 28.5864Z" fill="#B29EDA"/>
<path d="M768.982 75.5117L779.335 55.6466L786.064 59.1535L788.79 53.9232L769.351 43.793L766.625 49.0233L773.355 52.5303L763.002 72.3954L768.982 75.5117Z" fill="#B29EDA"/>
<path d="M803.445 96.0673L809.784 86.8568L819.517 93.5554L813.177 102.766L818.732 106.589L834.754 83.3097L829.2 79.4866L822.86 88.697L813.128 81.9984L819.467 72.788L813.912 68.9648L797.89 92.2441L803.445 96.0673Z" fill="#B29EDA"/>
<path d="M838.969 122.58L854.151 135.978L858.054 131.556L847.927 122.619L851.423 118.658L859.648 125.917L863.551 121.494L855.326 114.236L858.821 110.275L868.948 119.211L872.85 114.789L857.668 101.391L838.969 122.58Z" fill="#B29EDA"/>
<path d="M896.116 181.544L903.629 175.745L908.007 181.417C911.274 185.303 916.901 185.959 920.977 182.813C925.007 179.702 925.797 174.092 922.865 169.948L914.366 158.938L891.996 176.206L896.116 181.544ZM908.297 172.141L913.818 167.879L917.48 172.624C918.737 174.251 918.453 176.242 916.81 177.51C915.183 178.766 913.216 178.513 911.96 176.885L908.297 172.141Z" fill="#B29EDA"/>
<path d="M920.488 215.719L930.9 233.086L935.958 230.053L929.014 218.47L933.545 215.753L939.185 225.161L944.244 222.129L938.603 212.72L943.134 210.004L950.079 221.587L955.138 218.554L944.726 201.188L920.488 215.719Z" fill="#B29EDA"/>
<path d="M948.52 269.532C950.695 274.473 955.235 277.68 960.369 278.232C962.935 278.53 965.388 278.143 967.78 277.09C972.58 274.976 975.783 270.523 976.39 265.322C976.688 262.756 976.297 260.2 975.229 257.773C973.053 252.832 968.549 249.61 963.415 249.057C960.849 248.76 958.36 249.163 955.951 250.223C951.169 252.329 947.966 256.782 947.359 261.983C947.061 264.549 947.444 267.088 948.52 269.532ZM958.754 256.588C962.745 254.831 967.303 256.602 969.022 260.506C970.756 264.444 968.969 268.968 964.977 270.725C961.004 272.474 956.445 270.703 954.727 266.799C952.993 262.861 954.78 258.338 958.754 256.588Z" fill="#B29EDA"/>
<path d="M965.433 313.599L974.538 310.923L976.559 317.798C978.192 322.604 983.197 325.258 988.137 323.806C993.022 322.37 995.795 317.43 994.567 312.505L990.645 299.16L963.531 307.13L965.433 313.599ZM980.197 309.26L986.888 307.293L988.578 313.044C989.158 315.016 988.171 316.768 986.18 317.353C984.208 317.933 982.467 316.983 981.887 315.01L980.197 309.26Z" fill="#B29EDA"/>
<path d="M975.726 354.287L979.002 373.412L984.815 372.416L982.677 359.938L1004.72 356.162L1003.58 349.516L975.726 354.287Z" fill="#B29EDA"/>
<path d="M981.931 398.943L983.083 419.16L988.971 418.824L988.203 405.34L993.478 405.04L994.102 415.992L999.99 415.656L999.366 404.704L1004.64 404.404L1005.41 417.888L1011.3 417.552L1010.15 397.336L981.931 398.943Z" fill="#B29EDA"/>
</g>
<defs>
<linearGradient id="paint0_linear_720_183" x1="437.316" y1="265.805" x2="741.803" y2="265.805" gradientUnits="userSpaceOnUse">
<stop stop-color="#8E64E3"/>
<stop offset="0.478771" stop-color="#EFE9FB"/>
<stop offset="1" stop-color="#8E64E3"/>
</linearGradient>
<clipPath id="clip0_720_183">
<rect width="1159" height="591" fill="white"/>
</clipPath>
</defs>
</svg>
