<svg width="31" height="30" viewBox="0 0 31 30" fill="none" xmlns="http://www.w3.org/2000/svg">
<path fill-rule="evenodd" clip-rule="evenodd" d="M28.2783 0.220774C28.6261 0.36564 28.9417 0.578163 29.2067 0.846009C29.7394 1.3794 30.0385 2.10236 30.0385 2.85614C30.0385 3.60992 29.7394 4.33289 29.2067 4.86628L19.0779 14.9951L29.2067 25.1271C29.7384 25.6603 30.037 26.3826 30.037 27.1356C30.037 27.8886 29.7384 28.6109 29.2067 29.1442C28.9434 29.4149 28.6284 29.6301 28.2805 29.7771C27.9326 29.924 27.5587 29.9998 27.181 29.9998C26.8033 29.9998 26.4294 29.924 26.0815 29.7771C25.7335 29.6301 25.4186 29.4149 25.1552 29.1442L15.0264 19.0154L4.89757 29.1442C4.63394 29.415 4.31872 29.6303 3.97052 29.7773C3.62232 29.9243 3.24819 30 2.87024 30C2.49229 30 2.11816 29.9243 1.76996 29.7773C1.42176 29.6303 1.10654 29.415 0.842911 29.1442C0.577405 28.8814 0.366635 28.5686 0.222791 28.2238C0.0789465 27.8791 0.00488281 27.5092 0.00488281 27.1356C0.00488281 26.7621 0.0789465 26.3922 0.222791 26.0474C0.366635 25.7027 0.577405 25.3898 0.842911 25.1271L10.9717 14.9982L0.842911 4.8694C0.323953 4.32929 0.0381092 3.60683 0.0470389 2.85786C0.0559686 2.10889 0.358957 1.39344 0.890644 0.865855C1.42233 0.338271 2.1401 0.040833 2.88912 0.037705C3.63814 0.034577 4.35837 0.326009 4.89444 0.849135L15.0233 10.978L25.1552 0.849135C25.5539 0.444104 26.0648 0.16778 26.622 0.0557833C27.1792 -0.0562134 27.7572 0.00125388 28.2814 0.220774H28.2783Z" fill="#E42021"/>
</svg>
