<svg width="70" height="70" viewBox="0 0 70 70" fill="none" xmlns="http://www.w3.org/2000/svg">
<path d="M57.3836 57.384L12.6136 12.6154L12.6041 12.6045C12.3617 12.3641 12.0743 12.1738 11.7584 12.0444C11.4425 11.9151 11.1042 11.8492 10.7628 11.8506C10.4214 11.852 10.0836 11.9206 9.76877 12.0526C9.4539 12.1845 9.16811 12.3771 8.9277 12.6195C8.6873 12.8619 8.49699 13.1493 8.36764 13.4652C8.23828 13.7811 8.17243 14.1194 8.17382 14.4608C8.17664 15.1503 8.45323 15.8104 8.94274 16.2959L12.8625 20.2156C8.10891 23.4712 4.01727 27.6005 0.805245 32.3836C0.280723 33.158 0.000366211 34.0719 0.000366211 35.0072C0.000366211 35.9426 0.280723 36.8565 0.805245 37.6309C9.00427 49.766 22.0021 56.8754 35 56.7866C39.2102 56.8018 43.3923 56.1009 47.3675 54.7139L53.7127 61.059C54.2015 61.5321 54.8565 61.7945 55.5368 61.7899C56.2171 61.7853 56.8684 61.514 57.3508 61.0343C57.8332 60.5545 58.1081 59.9047 58.1165 59.2245C58.125 58.5442 57.8662 57.8878 57.3959 57.3963L57.3836 57.384ZM35 49.7305C32.5374 49.7296 30.1143 49.1115 27.9521 47.9328C25.79 46.7541 23.9577 45.0522 22.6228 42.9829C21.2879 40.9135 20.4928 38.5426 20.3104 36.0868C20.1279 33.6309 20.5638 31.1685 21.5783 28.9246L25.673 33.0194C25.3432 34.5736 25.4069 36.1856 25.8584 37.7089C26.3099 39.2322 27.1349 40.6186 28.2583 41.742C29.3818 42.8655 30.7682 43.6905 32.2915 44.142C33.8148 44.5935 35.4268 44.6572 36.981 44.3274L41.0757 48.4221C39.1673 49.2874 37.0955 49.7336 35 49.7305ZM69.1947 32.3768C60.9957 20.2348 47.9978 13.1254 35 13.2143C30.7897 13.199 26.6076 13.8999 22.6324 15.2869L28.9214 21.576C31.6505 20.341 34.6911 19.967 37.638 20.5039C40.585 21.0408 43.2983 22.4631 45.4164 24.5812C47.5345 26.6993 48.9568 29.4127 49.4937 32.3596C50.0306 35.3066 49.6566 38.3472 48.4216 41.0762L57.1361 49.7907C61.8905 46.5356 65.9826 42.4062 69.1947 37.6227C69.7189 36.8484 69.9991 35.9348 69.9991 34.9997C69.9991 34.0647 69.7189 33.1511 69.1947 32.3768Z" fill="#8D64E2"/>
<path d="M35 25.4658C34.3342 25.4659 33.6702 25.5356 33.0189 25.6736L44.3269 36.9803C44.6218 35.5911 44.6026 34.1536 44.2708 32.7727C43.939 31.3919 43.3029 30.1026 42.409 28.9991C41.5151 27.8956 40.386 27.0057 39.1042 26.3944C37.8223 25.7831 36.4201 25.4658 35 25.4658Z" fill="#8D64E2"/>
</svg>
