<svg width="427" height="299" viewBox="0 0 427 299" fill="none" xmlns="http://www.w3.org/2000/svg">
<g clip-path="url(#clip0_690_2)">
<mask id="mask0_690_2" style="mask-type:luminance" maskUnits="userSpaceOnUse" x="0" y="0" width="427" height="299">
<path d="M427 0H0V299H427V0Z" fill="white"/>
</mask>
<g mask="url(#mask0_690_2)">
<path d="M405.333 42.6667H128C122.342 42.6667 116.916 40.4191 112.915 36.4183C108.914 32.4175 106.667 26.9913 106.667 21.3333C106.667 15.6754 108.914 10.2492 112.915 6.24839C116.916 2.24762 122.342 0 128 0H405.333C410.991 0 416.418 2.24762 420.418 6.24839C424.419 10.2492 426.667 15.6754 426.667 21.3333C426.667 26.9913 424.419 32.4175 420.418 36.4183C416.418 40.4191 410.991 42.6667 405.333 42.6667ZM426.667 149.333C426.667 143.675 424.419 138.249 420.418 134.248C416.418 130.248 410.991 128 405.333 128H21.3333C15.6754 128 10.2492 130.248 6.24839 134.248C2.24761 138.249 0 143.675 0 149.333C0 154.991 2.24761 160.418 6.24839 164.418C10.2492 168.419 15.6754 170.667 21.3333 170.667H405.333C410.991 170.667 416.418 168.419 420.418 164.418C424.419 160.418 426.667 154.991 426.667 149.333ZM426.667 277.333C426.667 271.675 424.419 266.249 420.418 262.248C416.418 258.248 410.991 256 405.333 256H213.333C207.675 256 202.249 258.248 198.248 262.248C194.248 266.249 192 271.675 192 277.333C192 282.991 194.248 288.418 198.248 292.418C202.249 296.419 207.675 298.667 213.333 298.667H405.333C410.991 298.667 416.418 296.419 420.418 292.418C424.419 288.418 426.667 282.991 426.667 277.333Z" fill="#8D64E2"/>
</g>
</g>
<defs>
<clipPath id="clip0_690_2">
<rect width="427" height="299" fill="white"/>
</clipPath>
</defs>
</svg>
