<svg width="43" height="34" viewBox="0 0 43 34" fill="none" xmlns="http://www.w3.org/2000/svg">
<path fill-rule="evenodd" clip-rule="evenodd" d="M12.2812 33.6345C12.1544 33.6326 12.031 33.5931 11.9267 33.5211C11.8224 33.449 11.7418 33.3476 11.6951 33.2298C11.6504 33.1404 7.77879 23.1448 1.79138 19.3626C0.620452 18.6424 -0.279767 17.8775 0.0803209 16.1665C0.440409 14.5014 1.56536 13.5552 3.59181 13.1057C7.19269 12.3396 11.0655 17.9222 12.5046 20.2181C17.5484 12.881 27.6321 1.35563 42.3089 0.0046591C43.0163 -0.0783398 43.2793 0.971277 42.6243 1.26497C42.3996 1.35435 21.42 10.9439 12.9107 33.2745C12.8471 33.3849 12.7553 33.4764 12.6447 33.5397C12.534 33.603 12.4086 33.6357 12.2812 33.6345Z" fill="#64DD17"/>
</svg>
